<svg xmlns="http://www.w3.org/2000/svg" width="244.01" height="115.48" viewBox="0 0 244.01 115.48"><linearGradient id="a" gradientUnits="userSpaceOnUse" x1="37.313" y1="43.628" x2="37.313" y2="71.848"><stop offset="0" stop-color="#29334C"/><stop offset="1" stop-color="#4E5466"/></linearGradient><path fill="url(#a)" d="M34.31 71.85h-8.43V43.63h8.83c8.06 0 14.03 3.79 14.03 14.11 0 9.92-7.17 14.11-14.43 14.11zm.2-22.74h-2.98v17.25h2.78c5.93 0 8.63-3.47 8.63-8.63 0-5.76-2.46-8.62-8.43-8.62z"/><linearGradient id="b" gradientUnits="userSpaceOnUse" x1="61.543" y1="50.239" x2="61.543" y2="72.291"><stop offset="0" stop-color="#29334C"/><stop offset="1" stop-color="#4E5466"/></linearGradient><path fill="url(#b)" d="M70.63 63.06H57.98c.2 2.9 2.34 3.99 4.35 3.99 1.53 0 2.82-.56 3.63-1.49l3.95 3.31c-1.69 2.18-4.76 3.43-7.58 3.43-6.09 0-9.96-4.31-9.96-11.01 0-6.49 4.07-11.05 9.43-11.05 5.64 0 8.91 5 8.91 11.05 0 .8-.04 1.37-.08 1.77zm-9.11-7.98c-2.02 0-3.27 1.65-3.47 3.79h7.26c-.16-1.9-1.29-3.79-3.79-3.79z"/><linearGradient id="c" gradientUnits="userSpaceOnUse" x1="82.934" y1="50.683" x2="82.934" y2="71.848"><stop offset="0" stop-color="#29334C"/><stop offset="1" stop-color="#4E5466"/></linearGradient><path fill="url(#c)" d="M85.8 71.85h-5.72l-7.62-21.16h6.13l3.1 9.8c.52 1.61 1.09 3.63 1.33 4.64.24-1.05.81-2.98 1.33-4.64l3.1-9.8h5.97L85.8 71.85z"/><linearGradient id="d" gradientUnits="userSpaceOnUse" x1="107.789" y1="43.628" x2="107.789" y2="71.848"><stop offset="0" stop-color="#29334C"/><stop offset="1" stop-color="#4E5466"/></linearGradient><path fill="url(#d)" d="M108.25 71.85H98.13V43.63h10.32c4.47 0 7.66 2.22 7.66 7.06 0 3.1-1.69 4.92-4.07 5.76 2.58.69 5.4 2.5 5.4 7.06 0 5.56-3.26 8.34-9.19 8.34zm.08-25.36h-7.05v8.79h6.81c3.51 0 4.88-2.02 4.88-4.48 0-2.58-1.49-4.31-4.64-4.31zm-.04 11.61h-7.01v10.88h7.18c4.23 0 5.85-2.1 5.85-5.32-.01-3.54-2.35-5.56-6.02-5.56z"/><linearGradient id="e" gradientUnits="userSpaceOnUse" x1="130.707" y1="50.683" x2="130.707" y2="72.291"><stop offset="0" stop-color="#29334C"/><stop offset="1" stop-color="#4E5466"/></linearGradient><path fill="url(#e)" d="M135.83 71.85v-2.58c-1.21 1.77-3.18 3.02-5.84 3.02-4.48 0-7.42-2.62-7.42-8.71v-12.9h3.02v12.38c0 4.56 1.61 6.61 5 6.61 2.94 0 5.24-1.98 5.24-6.61V50.68h3.02v21.16h-3.02z"/><linearGradient id="f" gradientUnits="userSpaceOnUse" x1="149.212" y1="42.459" x2="149.212" y2="72.291"><stop offset="0" stop-color="#29334C"/><stop offset="1" stop-color="#4E5466"/></linearGradient><path fill="url(#f)" d="M149.41 53.22v13.79c0 1.9.52 2.54 2.14 2.54 1.21 0 2.02-.2 2.98-.6l-.2 2.62c-1.17.48-2.3.73-3.91.73-2.62 0-4.03-1.29-4.03-4.8V53.22h-2.62v-2.54h2.62v-6.53l3.02-1.69v8.22h5.24v2.54h-5.24z"/><linearGradient id="g" gradientUnits="userSpaceOnUse" x1="166.269" y1="50.683" x2="166.269" y2="71.848"><stop offset="0" stop-color="#29334C"/><stop offset="1" stop-color="#4E5466"/></linearGradient><path fill="url(#g)" d="M158.77 71.85v-2.22l11.57-16.41H159.7v-2.54h14.07v2.22L162.2 69.31h11.57v2.54h-15z"/><linearGradient id="h" gradientUnits="userSpaceOnUse" x1="186.625" y1="50.239" x2="186.625" y2="72.291"><stop offset="0" stop-color="#29334C"/><stop offset="1" stop-color="#4E5466"/></linearGradient><path fill="url(#h)" d="M195.13 62.29h-14.11c.28 4.52 2.42 7.38 5.89 7.38 2.46 0 3.91-.73 5.85-2.02l1.41 2.18c-2.54 1.61-4.39 2.46-7.58 2.46-3.87 0-8.59-2.82-8.59-11.13 0-6.73 3.71-10.93 8.75-10.93 5.52 0 8.51 4.35 8.51 10.4-.01.74-.05 1.18-.13 1.66zm-8.42-9.43c-3.14 0-5.32 2.26-5.68 6.97h11.41c-.25-4.11-2.03-6.97-5.73-6.97z"/><linearGradient id="i" gradientUnits="userSpaceOnUse" x1="6.672" y1="70.719" x2="6.672" y2="45.241"><stop offset="0" stop-color="#5ACA10"/><stop offset="1" stop-color="#C5FD73"/></linearGradient><path fill="url(#i)" d="M0 59.87v-3.79l13.34-10.84v6.93L5.8 57.93l7.54 5.81v6.97L0 59.87z"/><linearGradient id="j" gradientUnits="userSpaceOnUse" x1="218.691" y1="75.477" x2="218.691" y2="40"><stop offset="0" stop-color="#5ACA10"/><stop offset="1" stop-color="#C5FD73"/></linearGradient><path fill="url(#j)" d="M214.86 75.48h-5.48L222.52 40H228l-13.14 35.48z"/><linearGradient id="k" gradientUnits="userSpaceOnUse" x1="237.338" y1="70.719" x2="237.338" y2="45.241"><stop offset="0" stop-color="#5ACA10"/><stop offset="1" stop-color="#C5FD73"/></linearGradient><path fill="url(#k)" d="M230.67 70.72v-6.93l7.54-5.77-7.54-5.81v-6.97l13.34 10.84v3.79l-13.34 10.85z"/><g fill="#fff"><path d="M34.31 111.85h-8.43V83.63h8.83c8.06 0 14.03 3.79 14.03 14.11 0 9.92-7.17 14.11-14.43 14.11zm.2-22.74h-2.98v17.25h2.78c5.93 0 8.63-3.47 8.63-8.63 0-5.76-2.46-8.62-8.43-8.62zM70.63 103.06H57.98c.2 2.9 2.34 3.99 4.35 3.99 1.53 0 2.82-.56 3.63-1.49l3.95 3.31c-1.69 2.18-4.76 3.43-7.58 3.43-6.09 0-9.96-4.31-9.96-11.01 0-6.49 4.07-11.05 9.43-11.05 5.64 0 8.91 5 8.91 11.05 0 .8-.04 1.37-.08 1.77zm-9.11-7.98c-2.02 0-3.27 1.65-3.47 3.79h7.26c-.16-1.9-1.29-3.79-3.79-3.79zM85.8 111.85h-5.72l-7.62-21.16h6.13l3.1 9.8c.52 1.61 1.09 3.63 1.33 4.64.24-1.05.81-2.98 1.33-4.64l3.1-9.8h5.97l-7.62 21.16zM108.25 111.85H98.13V83.63h10.32c4.47 0 7.66 2.22 7.66 7.06 0 3.1-1.69 4.92-4.07 5.76 2.58.69 5.4 2.5 5.4 7.06 0 5.56-3.26 8.34-9.19 8.34zm.08-25.36h-7.05v8.79h6.81c3.51 0 4.88-2.02 4.88-4.48 0-2.58-1.49-4.31-4.64-4.31zm-.04 11.61h-7.01v10.88h7.18c4.23 0 5.85-2.1 5.85-5.32-.01-3.54-2.35-5.56-6.02-5.56zM135.83 111.85v-2.58c-1.21 1.77-3.18 3.02-5.84 3.02-4.48 0-7.42-2.62-7.42-8.71v-12.9h3.02v12.38c0 4.56 1.61 6.61 5 6.61 2.94 0 5.24-1.98 5.24-6.61V90.68h3.02v21.16h-3.02zM149.41 93.22v13.79c0 1.9.52 2.54 2.14 2.54 1.21 0 2.02-.2 2.98-.6l-.2 2.62c-1.17.48-2.3.73-3.91.73-2.62 0-4.03-1.29-4.03-4.8V93.22h-2.62v-2.54h2.62v-6.53l3.02-1.69v8.22h5.24v2.54h-5.24zM158.77 111.85v-2.22l11.57-16.41H159.7v-2.54h14.07v2.22l-11.57 16.41h11.57v2.54h-15zM195.13 102.29h-14.11c.28 4.52 2.42 7.38 5.89 7.38 2.46 0 3.91-.73 5.85-2.02l1.41 2.18c-2.54 1.61-4.39 2.46-7.58 2.46-3.87 0-8.59-2.82-8.59-11.13 0-6.73 3.71-10.93 8.75-10.93 5.52 0 8.51 4.35 8.51 10.4-.01.74-.05 1.18-.13 1.66zm-8.42-9.43c-3.14 0-5.32 2.26-5.68 6.97h11.41c-.25-4.11-2.03-6.97-5.73-6.97z"/></g><path fill="#fff" d="M0 99.87v-3.79l13.34-10.84v6.93L5.8 97.93l7.54 5.81v6.97L0 99.87z"/><g fill="#fff"><path d="M214.86 115.48h-5.48L222.52 80H228l-13.14 35.48zM230.67 110.72v-6.93l7.54-5.77-7.54-5.81v-6.97l13.34 10.84v3.79l-13.34 10.85z"/></g><path d="M34.31 31.85h-8.43V3.63h8.83c8.06 0 14.03 3.79 14.03 14.11 0 9.92-7.17 14.11-14.43 14.11zm.2-22.74h-2.98v17.25h2.78c5.93 0 8.63-3.47 8.63-8.63 0-5.76-2.46-8.62-8.43-8.62zM70.63 23.06H57.98c.2 2.9 2.34 3.99 4.35 3.99 1.53 0 2.82-.56 3.63-1.49l3.95 3.31c-1.69 2.18-4.76 3.43-7.58 3.43-6.09 0-9.96-4.31-9.96-11.01 0-6.49 4.07-11.05 9.43-11.05 5.64 0 8.91 5 8.91 11.05 0 .8-.04 1.37-.08 1.77zm-9.11-7.98c-2.02 0-3.27 1.65-3.47 3.79h7.26c-.16-1.9-1.29-3.79-3.79-3.79zM85.8 31.85h-5.72l-7.62-21.16h6.13l3.1 9.8c.52 1.61 1.09 3.63 1.33 4.64.24-1.05.81-2.98 1.33-4.64l3.1-9.8h5.97L85.8 31.85zM108.25 31.85H98.13V3.63h10.32c4.47 0 7.66 2.22 7.66 7.06 0 3.1-1.69 4.92-4.07 5.76 2.58.69 5.4 2.5 5.4 7.06 0 5.56-3.26 8.34-9.19 8.34zm.08-25.36h-7.05v8.79h6.81c3.51 0 4.88-2.02 4.88-4.48 0-2.58-1.49-4.31-4.64-4.31zm-.04 11.61h-7.01v10.88h7.18c4.23 0 5.85-2.1 5.85-5.32-.01-3.54-2.35-5.56-6.02-5.56zM135.83 31.85v-2.58c-1.21 1.77-3.18 3.02-5.84 3.02-4.48 0-7.42-2.62-7.42-8.71v-12.9h3.02v12.38c0 4.56 1.61 6.61 5 6.61 2.94 0 5.24-1.98 5.24-6.61V10.68h3.02v21.16h-3.02zM149.41 13.22v13.79c0 1.9.52 2.54 2.14 2.54 1.21 0 2.02-.2 2.98-.6l-.2 2.62c-1.17.48-2.3.73-3.91.73-2.62 0-4.03-1.29-4.03-4.8V13.22h-2.62v-2.54h2.62V4.15l3.02-1.69v8.22h5.24v2.54h-5.24zM158.77 31.85v-2.22l11.57-16.41H159.7v-2.54h14.07v2.22L162.2 29.31h11.57v2.54h-15zM195.13 22.29h-14.11c.28 4.52 2.42 7.38 5.89 7.38 2.46 0 3.91-.73 5.85-2.02l1.41 2.18c-2.54 1.61-4.39 2.46-7.58 2.46-3.87 0-8.59-2.82-8.59-11.13 0-6.73 3.71-10.93 8.75-10.93 5.52 0 8.51 4.35 8.51 10.4-.01.74-.05 1.18-.13 1.66zm-8.42-9.43c-3.14 0-5.32 2.26-5.68 6.97h11.41c-.25-4.11-2.03-6.97-5.73-6.97zM0 19.87v-3.79L13.34 5.24v6.93L5.8 17.93l7.54 5.81v6.97L0 19.87zM214.86 35.48h-5.48L222.52 0H228l-13.14 35.48zM230.67 30.72v-6.93l7.54-5.77-7.54-5.81V5.24l13.34 10.84v3.79l-13.34 10.85z"/></svg>