<?xml version="1.0" encoding="utf-8"?>
<!-- Generator: Adobe Illustrator 17.0.0, SVG Export Plug-In . SVG Version: 6.00 Build 0)  -->
<!DOCTYPE svg PUBLIC "-//W3C//DTD SVG 1.1//EN" "http://www.w3.org/Graphics/SVG/1.1/DTD/svg11.dtd">
<svg version="1.1" id="Ebene_1" xmlns="http://www.w3.org/2000/svg" xmlns:xlink="http://www.w3.org/1999/xlink" x="0px" y="0px"
	 width="244.01px" height="115.48px" viewBox="0 0 244.01 115.48" enable-background="new 0 0 244.01 115.48" xml:space="preserve">
<g>
	<g>
		<linearGradient id="SVGID_1_" gradientUnits="userSpaceOnUse" x1="37.3127" y1="43.6279" x2="37.3127" y2="71.8477">
			<stop  offset="0" style="stop-color:#29334C"/>
			<stop  offset="1" style="stop-color:#4E5466"/>
		</linearGradient>
		<path fill="url(#SVGID_1_)" d="M34.31,71.85h-8.43V43.63h8.83c8.06,0,14.03,3.79,14.03,14.11C48.74,67.66,41.57,71.85,34.31,71.85
			z M34.51,49.11h-2.98v17.25h2.78c5.93,0,8.63-3.47,8.63-8.63C42.94,51.97,40.48,49.11,34.51,49.11z"/>
		<linearGradient id="SVGID_2_" gradientUnits="userSpaceOnUse" x1="61.5427" y1="50.2393" x2="61.5427" y2="72.291">
			<stop  offset="0" style="stop-color:#29334C"/>
			<stop  offset="1" style="stop-color:#4E5466"/>
		</linearGradient>
		<path fill="url(#SVGID_2_)" d="M70.63,63.06H57.98c0.2,2.9,2.34,3.99,4.35,3.99c1.53,0,2.82-0.56,3.63-1.49l3.95,3.31
			c-1.69,2.18-4.76,3.43-7.58,3.43c-6.09,0-9.96-4.31-9.96-11.01c0-6.49,4.07-11.05,9.43-11.05c5.64,0,8.91,5,8.91,11.05
			C70.71,62.09,70.67,62.66,70.63,63.06z M61.52,55.08c-2.02,0-3.27,1.65-3.47,3.79h7.26C65.15,56.97,64.02,55.08,61.52,55.08z"/>
		<linearGradient id="SVGID_3_" gradientUnits="userSpaceOnUse" x1="82.9343" y1="50.6831" x2="82.9343" y2="71.8477">
			<stop  offset="0" style="stop-color:#29334C"/>
			<stop  offset="1" style="stop-color:#4E5466"/>
		</linearGradient>
		<path fill="url(#SVGID_3_)" d="M85.8,71.85h-5.72l-7.62-21.16h6.13l3.1,9.8c0.52,1.61,1.09,3.63,1.33,4.64
			c0.24-1.05,0.81-2.98,1.33-4.64l3.1-9.8h5.97L85.8,71.85z"/>
		<linearGradient id="SVGID_4_" gradientUnits="userSpaceOnUse" x1="107.7891" y1="43.6279" x2="107.7891" y2="71.8477">
			<stop  offset="0" style="stop-color:#29334C"/>
			<stop  offset="1" style="stop-color:#4E5466"/>
		</linearGradient>
		<path fill="url(#SVGID_4_)" d="M108.25,71.85H98.13V43.63h10.32c4.47,0,7.66,2.22,7.66,7.06c0,3.1-1.69,4.92-4.07,5.76
			c2.58,0.69,5.4,2.5,5.4,7.06C117.44,69.07,114.18,71.85,108.25,71.85z M108.33,46.49h-7.05v8.79h6.81c3.51,0,4.88-2.02,4.88-4.48
			C112.97,48.22,111.48,46.49,108.33,46.49z M108.29,58.1h-7.01v10.88h7.18c4.23,0,5.85-2.1,5.85-5.32
			C114.3,60.12,111.96,58.1,108.29,58.1z"/>
		<linearGradient id="SVGID_5_" gradientUnits="userSpaceOnUse" x1="130.7065" y1="50.6831" x2="130.7065" y2="72.291">
			<stop  offset="0" style="stop-color:#29334C"/>
			<stop  offset="1" style="stop-color:#4E5466"/>
		</linearGradient>
		<path fill="url(#SVGID_5_)" d="M135.83,71.85v-2.58c-1.21,1.77-3.18,3.02-5.84,3.02c-4.48,0-7.42-2.62-7.42-8.71v-12.9h3.02v12.38
			c0,4.56,1.61,6.61,5,6.61c2.94,0,5.24-1.98,5.24-6.61V50.68h3.02v21.16H135.83z"/>
		<linearGradient id="SVGID_6_" gradientUnits="userSpaceOnUse" x1="149.2119" y1="42.459" x2="149.2119" y2="72.291">
			<stop  offset="0" style="stop-color:#29334C"/>
			<stop  offset="1" style="stop-color:#4E5466"/>
		</linearGradient>
		<path fill="url(#SVGID_6_)" d="M149.41,53.22v13.79c0,1.9,0.52,2.54,2.14,2.54c1.21,0,2.02-0.2,2.98-0.6l-0.2,2.62
			c-1.17,0.48-2.3,0.73-3.91,0.73c-2.62,0-4.03-1.29-4.03-4.8V53.22h-2.62v-2.54h2.62v-6.53l3.02-1.69v8.22h5.24v2.54H149.41z"/>
		<linearGradient id="SVGID_7_" gradientUnits="userSpaceOnUse" x1="166.269" y1="50.6831" x2="166.269" y2="71.8477">
			<stop  offset="0" style="stop-color:#29334C"/>
			<stop  offset="1" style="stop-color:#4E5466"/>
		</linearGradient>
		<path fill="url(#SVGID_7_)" d="M158.77,71.85v-2.22l11.57-16.41H159.7v-2.54h14.07v2.22L162.2,69.31h11.57v2.54H158.77z"/>
		<linearGradient id="SVGID_8_" gradientUnits="userSpaceOnUse" x1="186.6245" y1="50.2393" x2="186.6245" y2="72.291">
			<stop  offset="0" style="stop-color:#29334C"/>
			<stop  offset="1" style="stop-color:#4E5466"/>
		</linearGradient>
		<path fill="url(#SVGID_8_)" d="M195.13,62.29h-14.11c0.28,4.52,2.42,7.38,5.89,7.38c2.46,0,3.91-0.73,5.85-2.02l1.41,2.18
			c-2.54,1.61-4.39,2.46-7.58,2.46c-3.87,0-8.59-2.82-8.59-11.13c0-6.73,3.71-10.93,8.75-10.93c5.52,0,8.51,4.35,8.51,10.4
			C195.25,61.37,195.21,61.81,195.13,62.29z M186.71,52.86c-3.14,0-5.32,2.26-5.68,6.97h11.41
			C192.19,55.72,190.41,52.86,186.71,52.86z"/>
	</g>
	<g>
		<linearGradient id="SVGID_9_" gradientUnits="userSpaceOnUse" x1="6.6719" y1="70.7188" x2="6.6719" y2="45.2407">
			<stop  offset="0" style="stop-color:#5ACA10"/>
			<stop  offset="1" style="stop-color:#C5FD73"/>
		</linearGradient>
		<path fill="url(#SVGID_9_)" d="M0,59.87v-3.79l13.34-10.84v6.93l-7.54,5.76l7.54,5.81v6.97L0,59.87z"/>
	</g>
	<g>
		<linearGradient id="SVGID_10_" gradientUnits="userSpaceOnUse" x1="218.6914" y1="75.4766" x2="218.6914" y2="40">
			<stop  offset="0" style="stop-color:#5ACA10"/>
			<stop  offset="1" style="stop-color:#C5FD73"/>
		</linearGradient>
		<path fill="url(#SVGID_10_)" d="M214.86,75.48h-5.48L222.52,40H228L214.86,75.48z"/>
		<linearGradient id="SVGID_11_" gradientUnits="userSpaceOnUse" x1="237.3379" y1="70.7188" x2="237.3379" y2="45.2407">
			<stop  offset="0" style="stop-color:#5ACA10"/>
			<stop  offset="1" style="stop-color:#C5FD73"/>
		</linearGradient>
		<path fill="url(#SVGID_11_)" d="M230.67,70.72v-6.93l7.54-5.77l-7.54-5.81v-6.97l13.34,10.84v3.79L230.67,70.72z"/>
	</g>
</g>
<g>
	<g>
		<path fill="#FFFFFF" d="M34.31,111.85h-8.43V83.63h8.83c8.06,0,14.03,3.79,14.03,14.11C48.74,107.66,41.57,111.85,34.31,111.85z
			 M34.51,89.11h-2.98v17.25h2.78c5.93,0,8.63-3.47,8.63-8.63C42.94,91.97,40.48,89.11,34.51,89.11z"/>
		<path fill="#FFFFFF" d="M70.63,103.06H57.98c0.2,2.9,2.34,3.99,4.35,3.99c1.53,0,2.82-0.56,3.63-1.49l3.95,3.31
			c-1.69,2.18-4.76,3.43-7.58,3.43c-6.09,0-9.96-4.31-9.96-11.01c0-6.49,4.07-11.05,9.43-11.05c5.64,0,8.91,5,8.91,11.05
			C70.71,102.09,70.67,102.66,70.63,103.06z M61.52,95.08c-2.02,0-3.27,1.65-3.47,3.79h7.26C65.15,96.97,64.02,95.08,61.52,95.08z"
			/>
		<path fill="#FFFFFF" d="M85.8,111.85h-5.72l-7.62-21.16h6.13l3.1,9.8c0.52,1.61,1.09,3.63,1.33,4.64
			c0.24-1.05,0.81-2.98,1.33-4.64l3.1-9.8h5.97L85.8,111.85z"/>
		<path fill="#FFFFFF" d="M108.25,111.85H98.13V83.63h10.32c4.47,0,7.66,2.22,7.66,7.06c0,3.1-1.69,4.92-4.07,5.76
			c2.58,0.69,5.4,2.5,5.4,7.06C117.44,109.07,114.18,111.85,108.25,111.85z M108.33,86.49h-7.05v8.79h6.81
			c3.51,0,4.88-2.02,4.88-4.48C112.97,88.22,111.48,86.49,108.33,86.49z M108.29,98.1h-7.01v10.88h7.18c4.23,0,5.85-2.1,5.85-5.32
			C114.3,100.12,111.96,98.1,108.29,98.1z"/>
		<path fill="#FFFFFF" d="M135.83,111.85v-2.58c-1.21,1.77-3.18,3.02-5.84,3.02c-4.48,0-7.42-2.62-7.42-8.71v-12.9h3.02v12.38
			c0,4.56,1.61,6.61,5,6.61c2.94,0,5.24-1.98,5.24-6.61V90.68h3.02v21.16H135.83z"/>
		<path fill="#FFFFFF" d="M149.41,93.22v13.79c0,1.9,0.52,2.54,2.14,2.54c1.21,0,2.02-0.2,2.98-0.6l-0.2,2.62
			c-1.17,0.48-2.3,0.73-3.91,0.73c-2.62,0-4.03-1.29-4.03-4.8V93.22h-2.62v-2.54h2.62v-6.53l3.02-1.69v8.22h5.24v2.54H149.41z"/>
		<path fill="#FFFFFF" d="M158.77,111.85v-2.22l11.57-16.41H159.7v-2.54h14.07v2.22l-11.57,16.41h11.57v2.54H158.77z"/>
		<path fill="#FFFFFF" d="M195.13,102.29h-14.11c0.28,4.52,2.42,7.38,5.89,7.38c2.46,0,3.91-0.73,5.85-2.02l1.41,2.18
			c-2.54,1.61-4.39,2.46-7.58,2.46c-3.87,0-8.59-2.82-8.59-11.13c0-6.73,3.71-10.93,8.75-10.93c5.52,0,8.51,4.35,8.51,10.4
			C195.25,101.37,195.21,101.81,195.13,102.29z M186.71,92.86c-3.14,0-5.32,2.26-5.68,6.97h11.41
			C192.19,95.72,190.41,92.86,186.71,92.86z"/>
	</g>
	<g>
		<path fill="#FFFFFF" d="M0,99.87v-3.79l13.34-10.84v6.93l-7.54,5.76l7.54,5.81v6.97L0,99.87z"/>
	</g>
	<g>
		<path fill="#FFFFFF" d="M214.86,115.48h-5.48L222.52,80H228L214.86,115.48z"/>
		<path fill="#FFFFFF" d="M230.67,110.72v-6.93l7.54-5.77l-7.54-5.81v-6.97l13.34,10.84v3.79L230.67,110.72z"/>
	</g>
</g>
<g>
	<g>
		<path d="M34.31,31.85h-8.43V3.63h8.83c8.06,0,14.03,3.79,14.03,14.11C48.74,27.66,41.57,31.85,34.31,31.85z M34.51,9.11h-2.98
			v17.25h2.78c5.93,0,8.63-3.47,8.63-8.63C42.94,11.97,40.48,9.11,34.51,9.11z"/>
		<path d="M70.63,23.06H57.98c0.2,2.9,2.34,3.99,4.35,3.99c1.53,0,2.82-0.56,3.63-1.49l3.95,3.31c-1.69,2.18-4.76,3.43-7.58,3.43
			c-6.09,0-9.96-4.31-9.96-11.01c0-6.49,4.07-11.05,9.43-11.05c5.64,0,8.91,5,8.91,11.05C70.71,22.09,70.67,22.66,70.63,23.06z
			 M61.52,15.08c-2.02,0-3.27,1.65-3.47,3.79h7.26C65.15,16.97,64.02,15.08,61.52,15.08z"/>
		<path d="M85.8,31.85h-5.72l-7.62-21.16h6.13l3.1,9.8c0.52,1.61,1.09,3.63,1.33,4.64c0.24-1.05,0.81-2.98,1.33-4.64l3.1-9.8h5.97
			L85.8,31.85z"/>
		<path d="M108.25,31.85H98.13V3.63h10.32c4.47,0,7.66,2.22,7.66,7.06c0,3.1-1.69,4.92-4.07,5.76c2.58,0.69,5.4,2.5,5.4,7.06
			C117.44,29.07,114.18,31.85,108.25,31.85z M108.33,6.49h-7.05v8.79h6.81c3.51,0,4.88-2.02,4.88-4.48
			C112.97,8.22,111.48,6.49,108.33,6.49z M108.29,18.1h-7.01v10.88h7.18c4.23,0,5.85-2.1,5.85-5.32
			C114.3,20.12,111.96,18.1,108.29,18.1z"/>
		<path d="M135.83,31.85v-2.58c-1.21,1.77-3.18,3.02-5.84,3.02c-4.48,0-7.42-2.62-7.42-8.71v-12.9h3.02v12.38
			c0,4.56,1.61,6.61,5,6.61c2.94,0,5.24-1.98,5.24-6.61V10.68h3.02v21.16H135.83z"/>
		<path d="M149.41,13.22v13.79c0,1.9,0.52,2.54,2.14,2.54c1.21,0,2.02-0.2,2.98-0.6l-0.2,2.62c-1.17,0.48-2.3,0.73-3.91,0.73
			c-2.62,0-4.03-1.29-4.03-4.8V13.22h-2.62v-2.54h2.62V4.15l3.02-1.69v8.22h5.24v2.54H149.41z"/>
		<path d="M158.77,31.85v-2.22l11.57-16.41H159.7v-2.54h14.07v2.22L162.2,29.31h11.57v2.54H158.77z"/>
		<path d="M195.13,22.29h-14.11c0.28,4.52,2.42,7.38,5.89,7.38c2.46,0,3.91-0.73,5.85-2.02l1.41,2.18
			c-2.54,1.61-4.39,2.46-7.58,2.46c-3.87,0-8.59-2.82-8.59-11.13c0-6.73,3.71-10.93,8.75-10.93c5.52,0,8.51,4.35,8.51,10.4
			C195.25,21.37,195.21,21.81,195.13,22.29z M186.71,12.86c-3.14,0-5.32,2.26-5.68,6.97h11.41
			C192.19,15.72,190.41,12.86,186.71,12.86z"/>
	</g>
	<g>
		<path d="M0,19.87v-3.79L13.34,5.24v6.93l-7.54,5.76l7.54,5.81v6.97L0,19.87z"/>
	</g>
	<g>
		<path d="M214.86,35.48h-5.48L222.52,0H228L214.86,35.48z"/>
		<path d="M230.67,30.72v-6.93l7.54-5.77l-7.54-5.81V5.24l13.34,10.84v3.79L230.67,30.72z"/>
	</g>
</g>
<g>
</g>
<g>
</g>
<g>
</g>
<g>
</g>
<g>
</g>
<g>
</g>
<g>
</g>
<g>
</g>
<g>
</g>
<g>
</g>
<g>
</g>
<g>
</g>
<g>
</g>
<g>
</g>
<g>
</g>
</svg>
